<svg
 xmlns="http://www.w3.org/2000/svg"
 width="853.333"
 height="853.333"
 version="1.0"
 viewBox="0 0 640 640">
	<rect
		width="100%"
		height="100%"
		fill="black"/>
  <path
		fill="white"
		d="M402.5 141.5c-1 .4-49.2 15.9-69.7 22.5-5.3 1.7-10.1 3.6-10.6 4.3-.5.7-4.3 10.1-8.3 21-5.7 15.1-7.8 19.7-8.9 19.3-.8-.2-6.2-2.5-11.9-5s-10.9-4.6-11.5-4.6c-.8 0-11.7 23.1-15.1 32.1-.7 1.8 2.3 3.4 18.2 10.1 4 1.6 7.5 3.4 7.8 3.8.4.7-2.5 8.7-17 46-1.8 4.7-3.8 10.2-4.6 12.2-.7 2.1-1.6 3.8-1.9 3.8-.3 0-4.1-24.6-8.3-54.8-9.3-65.4-8.7-61.2-10-61.2-1 0-50.1 15.7-60.5 19.3-2.8 1-3.2 1.5-2.7 3.7.3 1.4 1.9 12.2 3.6 24 1.7 11.8 3.7 25.5 4.4 30.5.8 4.9 2.7 18.4 4.4 30 1.7 11.5 5.7 39.4 9 62 3.3 22.5 6.9 47.1 8 54.5 1.1 7.5 3.4 23 5 34.5 5.6 38.5 8.1 54.8 8.5 55.2.2.2 8-2.1 17.2-5.1 9.3-3.1 23.5-7.7 31.7-10.3 11-3.5 14.7-5.1 14.7-6.3 0-.9-3.8-28.1-8.5-60.5-4.7-32.3-8.5-59.1-8.5-59.4 0-.3 21.5 21.1 47.8 47.7l47.7 48.2 23-7.5c12.7-4.1 30.2-9.8 38.9-12.6l16-5.2-10.5-10.1c-5.7-5.5-32.4-31-59.2-56.5-26.8-25.5-48.7-46.7-48.7-47.2 0-.8 8.1-20.7 16.5-40.4 1.9-4.4 3.9-7.9 4.4-7.8 1.4.4 20.9 9 24.8 11.1 4 2 4.2 1.8 8.3-7.8 1.8-4.1 4.7-10.8 6.6-14.7 1.8-4 3.4-8 3.6-8.9.3-1.6-8.3-5.9-23.7-12.1-7.1-2.8-7.2-1.4 2-23.3 6.4-15.2 8.5-20.4 21.4-51.7 5-12.2 9.1-22.4 9.1-22.7 0-.6-.9-.7-2.5-.1z"/>
</svg>