<svg
	xmlns="http://www.w3.org/2000/svg"
	>

	<!-- ! GitHub / #181717 -->
	<symbol id="github" viewBox="0 0 24 24">
		<path fill="var(--iconColor, currentColor)" d="M12 .297c-6.63 0-12 5.373-12 12 0 5.303 3.438 9.8 8.205 11.385.6.113.82-.258.82-.577 0-.285-.01-1.04-.015-2.04-3.338.724-4.042-1.61-4.042-1.61C4.422 18.07 3.633 17.7 3.633 17.7c-1.087-.744.084-.729.084-.729 1.205.084 1.838 1.236 1.838 1.236 1.07 1.835 2.809 1.305 3.495.998.108-.776.417-1.305.76-1.605-2.665-.3-5.466-1.332-5.466-5.93 0-1.31.465-2.38 1.235-3.22-.135-.303-.54-1.523.105-3.176 0 0 1.005-.322 3.3 1.23.96-.267 1.98-.399 3-.405 1.02.006 2.04.138 3 .405 2.28-1.552 3.285-1.23 3.285-1.23.645 1.653.24 2.873.12 3.176.765.84 1.23 1.91 1.23 3.22 0 4.61-2.805 5.625-5.475 5.92.42.36.81 1.096.81 2.22 0 1.606-.015 2.896-.015 3.286 0 .315.21.69.825.57C20.565 22.092 24 17.592 24 12.297c0-6.627-5.373-12-12-12"/>
	</symbol>

	<!-- ! Netlify / #00C7B7 -->
	<symbol id="netlify" viewBox="0 0 24 24">
		<path fill="var(--iconColor, currentColor)" d="M17.3877 8.3286l-.0088-.0037c-.005-.002-.01-.0038-.0144-.0082a.0689.0689 0 0 1-.0176-.0582l.4839-2.9581 2.269 2.2696L17.74 8.574a.052.052 0 0 1-.0206.0037H17.71a.0647.0647 0 0 1-.0126-.0106 1.074 1.074 0 0 0-.3097-.2385zm3.291-.1802l2.4262 2.426c.5039.5045.7561.7562.8481 1.0479.0138.0431.025.0863.0338.1308l-5.798-2.4555a.4557.4557 0 0 0-.0093-.0038c-.0232-.0094-.0501-.02-.0501-.0439 0-.0237.0275-.035.0507-.0444l.0075-.0031zm3.2092 4.3833c-.1252.2354-.3693.4795-.7824.8932l-2.7353 2.7347-3.5377-.7367-.0188-.0038c-.0313-.005-.0645-.0107-.0645-.0388a1.0678 1.0678 0 0 0-.41-.7467c-.0144-.0144-.0106-.037-.0063-.0576 0-.003 0-.0063.0013-.0088l.6654-4.0848.0025-.0138c.0038-.0313.0094-.0676.0376-.0676a1.0829 1.0829 0 0 0 .726-.4162c.0056-.0063.0094-.0131.017-.0169.02-.0094.0437 0 .0644.0088l6.0402 2.555zm-4.1467 4.257l-4.498 4.4979.77-4.732.0012-.0063a.083.083 0 0 1 .0038-.0182c.0063-.015.0226-.0213.0382-.0275l.0075-.0031a1.158 1.158 0 0 0 .435-.3236c.015-.0176.0332-.0345.0564-.0376a.0563.0563 0 0 1 .0181 0l3.1672.651zm-5.45 5.4499l-.507.507-5.6052-8.1007a.2654.2654 0 0 0-.0062-.0088c-.0088-.012-.0182-.0238-.0163-.0376.0006-.01.0069-.0188.0138-.0263l.0062-.0081c.017-.025.0313-.05.047-.077l.0125-.0219.0019-.0019c.0087-.015.0169-.0294.0319-.0376.0131-.0063.0313-.0038.0457-.0006l6.2098 1.2807a.1027.1027 0 0 1 .0476.0206c.008.0081.01.017.0119.027a1.0998 1.0998 0 0 0 .6434.7354c.0175.0088.01.0282.002.0488a.149.149 0 0 0-.0095.0282c-.0782.4757-.7492 4.568-.9295 5.6728zm-1.059 1.0584c-.3737.37-.594.5659-.8432.6447a1.2519 1.2519 0 0 1-.7549 0c-.2916-.0926-.5439-.3442-1.0478-.8487l-5.629-5.629 1.4704-2.2802a.0938.0938 0 0 1 .025-.0294c.0157-.0113.0382-.0063.057 0a1.5235 1.5235 0 0 0 1.0253-.052c.0169-.0063.0338-.0106.0469.0013a.119.119 0 0 1 .0175.02l5.6327 8.174zm-8.8175-6.3756L3.1234 15.63l2.55-1.0879a.0526.0526 0 0 1 .0207-.0044c.0213 0 .0338.0213.045.0407a1.8214 1.8214 0 0 0 .0814.1152l.0082.01c.0075.0106.0025.0213-.005.0313l-1.4084 2.1864zm-1.8628-1.8628L.9183 13.4249c-.278-.2779-.4795-.4794-.6197-.6528l4.9674 1.0303a.5258.5258 0 0 0 .0187.003c.0307.005.0645.0107.0645.0395 0 .0313-.037.0457-.0682.0576l-.0144.0063zM.0132 11.932a1.2519 1.2519 0 0 1 .0563-.3098c.0927-.2917.3443-.5434.8488-1.0478l2.0906-2.0906a1361.7196 1361.7196 0 0 0 2.8955 4.1855c.017.0226.0357.0476.0163.0664-.0914.1008-.1828.211-.2473.3305a.1001.1001 0 0 1-.0313.0388c-.008.005-.0169.003-.0262.0013h-.0013l-5.6014-1.175zm3.5553-4.0078l2.811-2.811c.2641.1157 1.2256.522 2.0856.885.651.2754 1.2443.5258 1.4308.6071.0188.0076.0357.015.0439.0338.005.0113.0025.0257 0 .0376a1.2537 1.2537 0 0 0 .3273 1.1442c.0188.0188 0 .0457-.0163.0689l-.0088.0131-2.8542 4.421c-.0075.0124-.0144.023-.0269.0312-.015.0094-.0363.005-.0538.0006a1.4234 1.4234 0 0 0-.34-.0463c-.1026 0-.214.0188-.3266.0395h-.0007c-.0125.0019-.0238.0044-.0338-.0031a.1314.1314 0 0 1-.0281-.032zm3.3787-3.3788l3.6391-3.639c.504-.5039.7562-.7561 1.0478-.8481a1.2519 1.2519 0 0 1 .755 0c.2916.092.5438.3442 1.0477.848l.7887.7888-2.5882 4.0084a.097.097 0 0 1-.0257.03c-.0156.0107-.0375.0063-.0563 0a1.3126 1.3126 0 0 0-1.2018.2316c-.0169.0176-.042.0075-.0632-.0019-.338-.147-2.967-1.258-3.343-1.4177zm7.8278-2.3009l2.3898 2.3898-.5758 3.5665v.0094a.0845.0845 0 0 1-.005.0238c-.0063.0125-.0188.015-.0313.0188a1.1454 1.1454 0 0 0-.343.1709.0964.0964 0 0 0-.0125.0106c-.007.0075-.0138.0144-.025.0157a.0714.0714 0 0 1-.027-.0044l-3.6416-1.5473-.007-.0031c-.0231-.0094-.0506-.0207-.0506-.0445a1.3758 1.3758 0 0 0-.194-.5727c-.0176-.0288-.037-.0588-.022-.0883zm-2.461 5.3868l3.4138 1.446c.0188.0087.0394.0168.0476.0362a.0663.0663 0 0 1 0 .0357.848.848 0 0 0-.0188.1646v.0958c0 .0238-.0244.0338-.047.0432l-.0069.0025c-.5408.231-7.5924 3.238-7.603 3.238-.0107 0-.022 0-.0326-.0107-.0188-.0188 0-.0451.0169-.0689a.4757.4757 0 0 0 .0087-.0125l2.8054-4.344.005-.0074c.0163-.0263.035-.0557.0651-.0557l.0282.0043c.0638.0088.1202.017.1771.017.4257 0 .82-.2072 1.0579-.5615a.1001.1001 0 0 1 .0212-.025c.017-.0126.042-.0063.0614.0024zm-3.9095 5.7492l7.6863-3.278s.0113 0 .022.0106c.0419.042.0776.0701.112.0964l.0169.0107c.0156.0088.0313.0188.0325.035 0 .0063 0 .01-.0013.0157l-.6584 4.0447-.0025.0163c-.0044.0313-.0088.067-.0382.067a1.0822 1.0822 0 0 0-.8594.5301l-.0031.005c-.0088.0144-.017.0282-.0313.0357-.0131.0063-.03.0038-.0438.0006L8.5064 13.706c-.0063-.0013-.0952-.3249-.102-.3255z"/>
	</symbol>

	<!-- ! VK / #0077FF -->
	<symbol id="vk" viewBox="0 0 24 24">
		<path fill="var(--iconColor, currentColor)" d="m9.489.004.729-.003h3.564l.73.003.914.01.433.007.418.011.403.014.388.016.374.021.36.025.345.03.333.033c1.74.196 2.933.616 3.833 1.516.9.9 1.32 2.092 1.516 3.833l.034.333.029.346.025.36.02.373.025.588.012.41.013.644.009.915.004.98-.001 3.313-.003.73-.01.914-.007.433-.011.418-.014.403-.016.388-.021.374-.025.36-.03.345-.033.333c-.196 1.74-.616 2.933-1.516 3.833-.9.9-2.092 1.32-3.833 1.516l-.333.034-.346.029-.36.025-.373.02-.588.025-.41.012-.644.013-.915.009-.98.004-3.313-.001-.73-.003-.914-.01-.433-.007-.418-.011-.403-.014-.388-.016-.374-.021-.36-.025-.345-.03-.333-.033c-1.74-.196-2.933-.616-3.833-1.516-.9-.9-1.32-2.092-1.516-3.833l-.034-.333-.029-.346-.025-.36-.02-.373-.025-.588-.012-.41-.013-.644-.009-.915-.004-.98.001-3.313.003-.73.01-.914.007-.433.011-.418.014-.403.016-.388.021-.374.025-.36.03-.345.033-.333c.196-1.74.616-2.933 1.516-3.833.9-.9 2.092-1.32 3.833-1.516l.333-.034.346-.029.36-.025.373-.02.588-.025.41-.012.644-.013.915-.009ZM6.79 7.3H4.05c.13 6.24 3.25 9.99 8.72 9.99h.31v-3.57c2.01.2 3.53 1.67 4.14 3.57h2.84c-.78-2.84-2.83-4.41-4.11-5.01 1.28-.74 3.08-2.54 3.51-4.98h-2.58c-.56 1.98-2.22 3.78-3.8 3.95V7.3H10.5v6.92c-1.6-.4-3.62-2.34-3.71-6.92Z"/>
	</symbol>

	<!-- ! Telegram / #26A5E4 -->
	<symbol id="telegram" viewBox="0 0 24 24">
		<path fill="var(--iconColor, currentColor)" d="M11.944 0A12 12 0 0 0 0 12a12 12 0 0 0 12 12 12 12 0 0 0 12-12A12 12 0 0 0 12 0a12 12 0 0 0-.056 0zm4.962 7.224c.1-.002.321.023.465.14a.506.506 0 0 1 .171.325c.016.093.036.306.02.472-.18 1.898-.962 6.502-1.36 8.627-.168.9-.499 1.201-.82 1.23-.696.065-1.225-.46-1.9-.902-1.056-.693-1.653-1.124-2.678-1.8-1.185-.78-.417-1.21.258-1.91.177-.184 3.247-2.977 3.307-3.23.007-.032.014-.15-.056-.212s-.174-.041-.249-.024c-.106.024-1.793 1.14-5.061 3.345-.48.33-.913.49-1.302.48-.428-.008-1.252-.241-1.865-.44-.752-.245-1.349-.374-1.297-.789.027-.216.325-.437.893-.663 3.498-1.524 5.83-2.529 6.998-3.014 3.332-1.386 4.025-1.627 4.476-1.635z"/>
	</symbol>

	<!-- ! 11ty / #000000 -->
	<symbol id="11ty" viewBox="0 0 24 24">
		<path fill="var(--iconColor, currentColor)" d="M3.398 12V0h17.204v24H3.398zm13.17 6.07a1.07 1.07 0 00.373-.107c.432-.213.68-.672.877-1.626.076-.372 1.195-6.168 1.209-6.263.026-.186-.008-.382-.084-.476a.325.325 0 00-.087-.064l-.06-.031h-.291c-.253 0-.298 0-.348.02-.113.039-.207.156-.255.316-.011.038-.168.881-.348 1.873l-.328 1.802-.046-.21c-.56-2.547-.764-3.452-.794-3.532a.383.383 0 00-.103-.16c-.105-.107-.117-.11-.567-.11-.411 0-.422 0-.5.074-.086.079-.122.216-.111.42.006.115.045.27.688 2.784.663 2.587.751 2.943.787 3.177.046.3-.05.713-.208.893-.032.037-.037.039-.084.032-.028 0-.12-.027-.204-.051-.268-.078-.362-.072-.462.028-.096.096-.137.248-.138.51 0 .256.028.34.159.473.131.133.324.208.595.23.164.012.22.012.33-.001zm-1.896-1.712a.31.31 0 00.16-.192c.02-.058.022-.098.022-.356 0-.255-.003-.299-.021-.354-.04-.121-.136-.196-.278-.217-.041-.01-.2-.01-.355-.01-.365-.001-.378-.01-.446-.184-.068-.18-.096-.326-.113-.602a85.799 85.799 0 01-.012-1.94v-1.765h.35c.454 0 .507-.01.602-.113a.465.465 0 00.102-.24 3.273 3.273 0 000-.534c-.026-.16-.099-.271-.211-.322-.057-.025-.065-.026-.45-.03h-.392l-.003-1.22c-.003-1.09-.005-1.227-.021-1.278a.378.378 0 00-.201-.247c-.052-.024-.072-.025-.32-.029-.27 0-.356 0-.429.038-.087.042-.148.133-.185.278-.014.054-.032.346-.076 1.262l-.06 1.194s-.08 0-.18.01c-.206.01-.263.022-.327.086-.092.092-.12.19-.127.455-.01.334.02.487.115.588.075.081.134.1.345.106l.173.01v1.785c0 1.7.006 2.019.034 2.274.041.37.13.709.241.928.194.38.544.617.988.668h1.005l.07-.04zm-7.447 0c.098-.053.16-.154.2-.332.016-.077.018-.401.018-4.518 0-4.184-.001-4.44-.02-4.51-.05-.194-.19-.29-.378-.26-.035.01-.344.084-.686.175-.343.09-.684.18-.758.198-.17.043-.214.062-.281.126-.105.098-.122.185-.122.606 0 .416.016.5.12.604.094.095.189.1.456.03.103-.026.193-.048.2-.048.01 0 .014.784.017 3.763.003 3.436.005 3.77.021 3.84.048.202.113.296.236.34.034.013.133.016.487.014.435 0 .445 0 .49-.027zm3.203 0c.092-.046.152-.135.197-.29l.024-.084.003-4.435c.002-3.194 0-4.456-.01-4.509-.033-.2-.145-.308-.322-.308-.066 0-.198.03-.857.204-.56.147-.799.214-.849.239a.34.34 0 00-.17.184c-.024.06-.024.071-.024.479 0 .415 0 .417.026.483a.362.362 0 00.083.12c.1.1.172.105.456.034a5.46 5.46 0 01.208-.05c.008 0 .012 1.202.014 3.791l.003 3.79.026.086a.48.48 0 00.135.23c.078.062.085.063.57.06.414 0 .447 0 .487-.024z"/>
	</symbol>

	<!-- ! GMail / #EA4335 -->
	<symbol id="gmail" viewBox="0 0 24 24">
		<path fill="var(--iconColor, currentColor)" d="M24 5.457v13.909c0 .904-.732 1.636-1.636 1.636h-3.819V11.73L12 16.64l-6.545-4.91v9.273H1.636A1.636 1.636 0 0 1 0 19.366V5.457c0-2.023 2.309-3.178 3.927-1.964L5.455 4.64 12 9.548l6.545-4.91 1.528-1.145C21.69 2.28 24 3.434 24 5.457z"/>
	</symbol>

	<!-- ! MailRu / #005FF9 -->
	<symbol id="mailru" viewBox="0 0 24 24">
		<path fill="var(--iconColor, currentColor)" d="M15.61 12c0 1.99-1.62 3.61-3.61 3.61-1.99 0-3.61-1.62-3.61-3.61 0-1.99 1.62-3.61 3.61-3.61 1.99 0 3.61 1.62 3.61 3.61M12 0C5.383 0 0 5.383 0 12s5.383 12 12 12c2.424 0 4.761-.722 6.76-2.087l.034-.024-1.617-1.879-.027.017A9.494 9.494 0 0 1 12 21.54c-5.26 0-9.54-4.28-9.54-9.54 0-5.26 4.28-9.54 9.54-9.54 5.26 0 9.54 4.28 9.54 9.54a9.63 9.63 0 0 1-.225 2.05c-.301 1.239-1.169 1.618-1.82 1.568-.654-.053-1.42-.52-1.426-1.661V12A6.076 6.076 0 0 0 12 5.93 6.076 6.076 0 0 0 5.93 12 6.076 6.076 0 0 0 12 18.07a6.02 6.02 0 0 0 4.3-1.792 3.9 3.9 0 0 0 3.32 1.805c.874 0 1.74-.292 2.437-.821.719-.547 1.256-1.336 1.553-2.285.047-.154.135-.504.135-.507l.002-.013c.175-.76.253-1.52.253-2.457 0-6.617-5.383-12-12-12"/>
	</symbol>

	<!-- ! Twitter / #1DA1F2 -->
	<symbol id="twitter" viewBox="0 0 24 24">
		<path fill="var(--iconColor, currentColor)" d="M23.953 4.57a10 10 0 01-2.825.775 4.958 4.958 0 002.163-2.723c-.951.555-2.005.959-3.127 1.184a4.92 4.92 0 00-8.384 4.482C7.69 8.095 4.067 6.13 1.64 3.162a4.822 4.822 0 00-.666 2.475c0 1.71.87 3.213 2.188 4.096a4.904 4.904 0 01-2.228-.616v.06a4.923 4.923 0 003.946 4.827 4.996 4.996 0 01-2.212.085 4.936 4.936 0 004.604 3.417 9.867 9.867 0 01-6.102 2.105c-.39 0-.779-.023-1.17-.067a13.995 13.995 0 007.557 2.209c9.053 0 13.998-7.496 13.998-13.985 0-.21 0-.42-.015-.63A9.935 9.935 0 0024 4.59z"/>
	</symbol>

	<!-- ! Patreon / #FF424D -->
	<symbol id="patreon" viewBox="0 0 24 24">
		<path fill="var(--iconColor, currentColor)" d="M0 .48v23.04h4.22V.48zm15.385 0c-4.764 0-8.641 3.88-8.641 8.65 0 4.755 3.877 8.623 8.641 8.623 4.75 0 8.615-3.868 8.615-8.623C24 4.36 20.136.48 15.385.48z"/>
	</symbol>

	<!-- ! Open Collective / #7FADF2 -->
	<symbol id="opencollective" viewBox="0 0 24 24">
		<path fill="var(--iconColor, currentColor)" d="M12 0C5.373 0 0 5.373 0 12s5.373 12 12 12c2.54 0 4.894-.79 6.834-2.135l-3.107-3.109a7.715 7.715 0 1 1 0-13.512l3.107-3.109A11.943 11.943 0 0 0 12 0zm9.865 5.166l-3.109 3.107A7.67 7.67 0 0 1 19.715 12a7.682 7.682 0 0 1-.959 3.727l3.109 3.107A11.943 11.943 0 0 0 24 12c0-2.54-.79-4.894-2.135-6.834z"/>
	</symbol>

	<!-- ! Fedora Linux / #51A2DA -->
	<symbol id="fedora" viewBox="0 0 24 24">
		<path fill="var(--iconColor, currentColor)" d="M12.001 0C5.376 0 .008 5.369.004 11.992H.002v9.287h.002A2.726 2.726 0 0 0 2.73 24h9.275c6.626-.004 11.993-5.372 11.993-11.997C23.998 5.375 18.628 0 12 0zm2.431 4.94c2.015 0 3.917 1.543 3.917 3.671 0 .197.001.395-.03.619a1.002 1.002 0 0 1-1.137.893 1.002 1.002 0 0 1-.842-1.175 2.61 2.61 0 0 0 .013-.337c0-1.207-.987-1.672-1.92-1.672-.934 0-1.775.784-1.777 1.672.016 1.027 0 2.046 0 3.07l1.732-.012c1.352-.028 1.368 2.009.016 1.998l-1.748.013c-.004.826.006.677.002 1.093 0 0 .015 1.01-.016 1.776-.209 2.25-2.124 4.046-4.424 4.046-2.438 0-4.448-1.993-4.448-4.437.073-2.515 2.078-4.492 4.603-4.469l1.409-.01v1.996l-1.409.013h-.007c-1.388.04-2.577.984-2.6 2.47a2.438 2.438 0 0 0 2.452 2.439c1.356 0 2.441-.987 2.441-2.437l-.001-7.557c0-.14.005-.252.02-.407.23-1.848 1.883-3.256 3.754-3.256z"/>
	</symbol>

	<!-- ! openSUSE / #73BA25 -->
	<symbol id="opensuse" viewBox="0 0 24 24">
		<path fill="var(--iconColor, currentColor)" d="M10.724 0a12 12 0 0 0-9.448 4.623c1.464.391 2.5.727 2.81.832.005-.19.037-1.893.037-1.893s.004-.04.025-.06c.026-.026.065-.018.065-.018.385.056 8.602 1.274 12.066 3.292.427.25.638.517.902.786.958.99 2.223 5.108 2.359 5.957.005.033-.036.07-.054.083a5.177 5.177 0 0 1-.313.228c-.82.55-2.708 1.872-5.13 1.656-2.176-.193-5.018-1.44-8.445-3.699.336.79.668 1.58 1 2.371.497.258 5.287 2.7 7.651 2.651 1.904-.04 3.941-.968 4.756-1.458 0 0 .179-.108.257-.048.085.066.061.167.041.27-.05.234-.164.66-.242.863l-.065.165c-.093.25-.183.482-.356.625-.48.436-1.246.784-2.446 1.305-1.855.812-4.865 1.328-7.66 1.31-1.001-.022-1.968-.133-2.817-.232-1.743-.197-3.161-.357-4.026.269A12 12 0 0 0 10.724 24a12 12 0 0 0 12-12 12 12 0 0 0-12-12zM13.4 6.963a3.503 3.503 0 0 0-2.521.942 3.498 3.498 0 0 0-1.114 2.449 3.528 3.528 0 0 0 3.39 3.64 3.48 3.48 0 0 0 2.524-.946 3.504 3.504 0 0 0 1.114-2.446 3.527 3.527 0 0 0-3.393-3.64zm-.03 1.035a2.458 2.458 0 0 1 2.368 2.539 2.43 2.43 0 0 1-.774 1.706 2.456 2.456 0 0 1-1.762.659 2.461 2.461 0 0 1-2.364-2.542c.02-.655.3-1.26.777-1.707a2.419 2.419 0 0 1 1.756-.655zm.402 1.23c-.602 0-1.087.325-1.087.727 0 .4.485.725 1.087.725.6 0 1.088-.326 1.088-.725 0-.402-.487-.726-1.088-.726Z"/>
	</symbol>

	<!-- ! Xiaomi / #FF6900 -->
	<symbol id="xiaomi" viewBox="0 0 24 24">
		<path fill="var(--iconColor, currentColor)" d="M12 0C8.016 0 4.756.255 2.493 2.516.23 4.776 0 8.033 0 12.012c0 3.98.23 7.235 2.494 9.497C4.757 23.77 8.017 24 12 24c3.983 0 7.243-.23 9.506-2.491C23.77 19.247 24 15.99 24 12.012c0-3.984-.233-7.243-2.502-9.504C19.234.252 15.978 0 12 0zM4.906 7.405h5.624c1.47 0 3.007.068 3.764.827.746.746.827 2.233.83 3.676v4.54a.15.15 0 0 1-.152.147h-1.947a.15.15 0 0 1-.152-.148V11.83c-.002-.806-.048-1.634-.464-2.051-.358-.36-1.026-.441-1.72-.458H7.158a.15.15 0 0 0-.151.147v6.98a.15.15 0 0 1-.152.148H4.906a.15.15 0 0 1-.15-.148V7.554a.15.15 0 0 1 .15-.149zm12.131 0h1.949a.15.15 0 0 1 .15.15v8.892a.15.15 0 0 1-.15.148h-1.949a.15.15 0 0 1-.151-.148V7.554a.15.15 0 0 1 .151-.149zM8.92 10.948h2.046c.083 0 .15.066.15.147v5.352a.15.15 0 0 1-.15.148H8.92a.15.15 0 0 1-.152-.148v-5.352a.15.15 0 0 1 .152-.147Z"/>
	</symbol>

	<!-- ! Android / #3DDC84 -->
	<symbol id="android" viewBox="0 0 24 24">
		<path fill="var(--iconColor, currentColor)" d="M17.523 15.3414c-.5511 0-.9993-.4486-.9993-.9997s.4483-.9993.9993-.9993c.5511 0 .9993.4483.9993.9993.0001.5511-.4482.9997-.9993.9997m-11.046 0c-.5511 0-.9993-.4486-.9993-.9997s.4482-.9993.9993-.9993c.5511 0 .9993.4483.9993.9993 0 .5511-.4483.9997-.9993.9997m11.4045-6.02l1.9973-3.4592a.416.416 0 00-.1521-.5676.416.416 0 00-.5676.1521l-2.0223 3.503C15.5902 8.2439 13.8533 7.8508 12 7.8508s-3.5902.3931-5.1367 1.0989L4.841 5.4467a.4161.4161 0 00-.5677-.1521.4157.4157 0 00-.1521.5676l1.9973 3.4592C2.6889 11.1867.3432 14.6589 0 18.761h24c-.3435-4.1021-2.6892-7.5743-6.1185-9.4396"/>
	</symbol>

	<!-- ! YouTube / #FF0000-->
	<symbol id="youtube" viewBox="0 0 24 24">
		<path fill="var(--iconColor, currentColor)" d="M23.498 6.186a3.016 3.016 0 0 0-2.122-2.136C19.505 3.545 12 3.545 12 3.545s-7.505 0-9.377.505A3.017 3.017 0 0 0 .502 6.186C0 8.07 0 12 0 12s0 3.93.502 5.814a3.016 3.016 0 0 0 2.122 2.136c1.871.505 9.376.505 9.376.505s7.505 0 9.377-.505a3.015 3.015 0 0 0 2.122-2.136C24 15.93 24 12 24 12s0-3.93-.502-5.814zM9.545 15.568V8.432L15.818 12l-6.273 3.568z"/>
	</symbol>

	<!-- ! npm / #CB3837 -->
	<symbol id="npm" viewBox="0 0 24 24">
		<path fill="var(--iconColor, currentColor)" d="M1.763 0C.786 0 0 .786 0 1.763v20.474C0 23.214.786 24 1.763 24h20.474c.977 0 1.763-.786 1.763-1.763V1.763C24 .786 23.214 0 22.237 0zM5.13 5.323l13.837.019-.009 13.836h-3.464l.01-10.382h-3.456L12.04 19.17H5.113z"/>
	</symbol>

	<!-- ! Teletype / #FAFAFA -->
	<symbol id="teletype" viewBox="0 0 24 24">
		<path fill="var(--iconColor, currentColor)" d="M0 0v24h24V0H0zm6 6h12v3h-4.5v9h-3V9H6V6Z"/>
	</symbol>

	<!-- ! Habr / #65A3BE -->
	<symbol id="habr" viewBox="0 0 24 24">
		<path fill="var(--iconColor, currentColor)" d="M1.14 9.295l.17.253c-.34-.01-.696-.043-.764-.189 0-.007.002-.014.004-.021.19-.05.353-.053.59-.043zm1.806.77l.082.25-.192.008.046-.256c.022 0 .042-.001.064-.003zM3.6 11.89c-.17.156-.301.26-.402.497-.14-.115-.213-.343-.258-.598-.05-.278-.066-.587-.104-.818l.012-.118.197-.014.502.95.053.1zm-.254-2.342a60.527 60.527 0 01.077-.512l.065-.004c-.048.172-.096.344-.142.516zm-.137-2.322l.9.244a1.975 1.975 0 00-.004.04c-.419.31-.806.446-1.014 1.006L3.17 7.27l.039-.043zm.84-1.29c-.058.58.024.836.125 1.196.16.114.224.183.172.352-.27-.134-.556-.274-.97-.252a2.799 2.799 0 01-.03-.035c.116-.457.342-.738.517-1.1l.187-.162zm1.294-.772l.039-.003c-.124.428-.174 1.415-.391 1.807-.513-.243-.503-1.296.071-1.712l.28-.092zm-.478 3.17l.432.469c-.17.522-.491.915-.627 1.52l-.255-.02c-.218-.609.327-1.601.42-2.045l.4.046c.05.125.098.25.147.376l-.517-.347zM6.047 5.16c-.044.507.068.77.098 1.162-.254.13-.509.258-.763.387a5.262 5.262 0 01.373-1.527l.292-.022zm.296-.77l.057-.004-.086.247-.169.011.13-.153.068-.101zM6.4 6.755l-.764.47c.016-.284.378-.667.681-.773l.07.038.013.265zm.51-1.778c-.047.262-.093.523-.138.785l-.143.09-.076.083c-.138-.194-.173-.67-.143-1.032l.5.074zm.508-.59c0 .01-.002.018-.003.026L7.22 4.6c-.13.05-.146.048-.31.042.021-.085.045-.17.068-.255h.44zm.51-1.032L7.7 3.87l-.79-.057.003-.042c.325-.15.61-.328 1.014-.417zm-.412 1.34l.084-.05.073.258-.255-.05.098-.159zm.666.763c-.303.118-.722.085-.965.22a77.912 77.912 0 00-.053-.31l.158-.207c.257.1.514.202.77.303l.09-.006zm-.651.464l-.346.013c-.008-.036-.014-.072-.021-.109.243-.099.651-.108 1.018-.149l-.387.213-.264.032zm.905 0c-.291.073-.57.33-.761.53-.037-.234.412-.646.627-.775.095.085.105.076.134.245zm.51-3.083l-.004.04-.306.185-.454.033.004-.04.76-.218zm-.412.774l-.098-.145c.23-.193.737-.087 1.019-.058l-.921.203zm2.278-.76c.425.035.814.135 1.11.32L12 3.168l-.047.066-.407.12c-.245-.034-.49-.07-.734-.105L9.2 3.02l.004-.033a5.375 5.375 0 011.608-.133zm1.693-.136l-.09.122a1.23 1.23 0 01-.67-.258l.764.097-.004.039zm1.356.954l.211-.08.219.188c-.03.215-.237.391-.396.6l-.122.008c-.332-.55-.751-1.151-1.486-1.363l-.032-.065.297-.12c.499.174.915.438 1.378.59.06.145.041.096-.07.242zm.614 1.223l-.058-.057-.126.009.21-.2-.026.248zm.225 2.848c.344.298.432.73.289 1.29-.148-.332-.295-.665-.444-.997.05-.074.097-.148.146-.222.003-.024.005-.048.009-.071zm.1-2.32l-.004.048-.181.207-.07-.137c.109-.195.03-.09.173-.11l.082-.008zm.212-.003l.806.299c-.001.027-.004.054-.007.08-.068.047-.136.092-.204.137l-.807-.298.007-.081.205-.137zm1.57 1.033l-.447-.297-.062-.12c.194-.12.166-.114.371-.074.045.164.092.327.138.49zm.254-.098l-.09.098c-.108-.056-.127-.127-.164-.259l.233.102.021.059zm-.19-.739l-.064.005c.07-.067.14-.134.212-.2-.05.065-.1.13-.148.195zm1.209 1.298l-.125.055a230.14 230.14 0 01-.681-.383 98.74 98.74 0 01-.213-.29c.353-.26.366.042.699.207l.32.411zm.254.228l-.254-.093.153-.08.101.173zm-.31.416c.092.185.092.133.31.105L17.718 8l-.373-.712.005-.044c.275-.059.363.04.632.08l.103.166-.285.067zm.056.463l.509-.278c-.102.23-.235.348-.392.516l-.117-.238zm1.018.985c-.138.119-.228.157-.489.179l.21.023-.004.037-.717.304-.018-.92.494-.585.09-.043.434 1.005zm-.255-1.412c1.406-.392 1.134.354.507.923-.17-.307-.339-.615-.507-.923zm1.273.149c-.518 2.434-.618 2.567-2.45 3.613-.03-.049-.063-.097-.096-.145l.065-.272c1.195-.34 1.874-.966 1.803-2.383l.599-.77.079-.043zm.062 0c-.02-.084-.04-.168-.062-.252l.19-.006-.128.258zm-3.117 2.367l.018-.269.016-.23.176-.059c.009 0 .017-.002.025-.003.05.305 0 .53-.1.775-.086-.055-.103-.078-.135-.214zm-1.018 2.258l.004-.045.334-.799.07-.168.588.04c.009.044.015.087.018.128.026.304-.079.547-.187.864l-.827-.02zm.255 1.036l.007-.4.01-.1.43.032.062-.005c-.099.163-.197.326-.294.49l-.215-.017zm-.252-1.67l.026-.013.203-.105.023-.002-.03.107-.119.409-.106-.364.003-.032zm-.397 1.285l-.115-.115c.112.078.039.002.115.115zm-.624-.307c.143-.09.298-.062.51-.06l-.063.207c-.175.07-.2.044-.397.023l-.05-.17zm.312.966l.197.466c-.152.103-.305.205-.457.309-.136-.187.012-.71.26-.775zm-.503-1.62l-.064.005.084-.191-.02.187zm.733.072l-.033-.021.112-.236.037-.001.106.248-.222.01zm1.763-3.355l-.014-.087c.067-.082.11-.133.225-.17l.03.152c-.05.033-.1.065-.149.099l-.092.006zm-.014.63c-.046.061-.128.095-.186.144l-.069-1.29.255 1.146zm-.467 1.73c.168-.094.192-.007.212.22h-.509l.009-.08.288-.14zm-.25-.713l.115-.098.093.166-.043.092-.212-.025.047-.135zm-.047.684l-.265.25-.173-.029-.07.007c.04-.079.082-.158.123-.236l.385.008zm-.96-.147c-.106-.074-.03-.064-.05-.12l.05.12zm.802-1.152l-.86-.446c.04-.59.112-1.268.054-1.876.663.24 1.258 1.319.806 2.322zm-.605 0c.211.112.2.214.493.304.051.191-.027.267-.149.47l-.312-.012c-.064-.34.006-.535-.032-.762zm.058 1.669c-.107-.074-.03-.064-.05-.12l.05.12zm1.723-2.484l.003-.048.23-.169c.04.264.025.704-.035 1.032-.136-.106-.161-.554-.198-.815zm0 .815c.052-.086.104-.172.154-.258l-.09.254-.064.004zm1.485-.771l.043-.003c.012.989-.598 1.169-1.4 1.54l-.128.009.5-1.036.985-.51zM17.32 7.103c.008.026.017.051.024.077l-.063.046-.191-.258.23.135zm-.23.43l.007-.045a3.35 3.35 0 01.056-.004l.192.258c-.148-.07-.172-.088-.255-.21zm.254.66l-.343.323-.737-1.07-.956-.83.21-.164c.463.2 1.273.581 1.436 1.057.053.155-.13.283-.006.412.148.154.296.044.397.271zm-2.148 1.613l.078.031.034.744-.119-.028c-.112-.083-.19-.467-.088-.634l.095-.113zm-.564 1.294l.082-.003.085.202-.13.05-.125.006c.03-.085.06-.17.088-.255zm-.232 4.126l-.11-.377c.157-.045.313-.09.47-.137l.04-.002a.527.527 0 00-.005.035l-.395.48zm-.365-1.032c.047-.152.08-.175.165-.259l.07.028.02.066-.157.154-.098.01zm.12.258l-.12-.132.255-.126-.066.253-.069.005zm-.268 1.17c-.036-.028-.07-.057-.106-.087l.078-.005.393-.304.038.31-.301.206-.102-.12zm.02 2.956c-.613.026-.98-.13-1.48-.174l-.573-1.133-.11-.114c.962-.114 1.567-.578 2.28-.899.252.24.823 1.462.32 2.003-.12.185-.255.204-.438.317zm-2.632-1.273l.23-.015c.347.233.583.65.749 1.033l-1.019-.295c.076-.258.108-.52.04-.723zm-.732-.974L11.691 16l1.804.176.032.091c-.537.242-1.148.446-1.764.758-.667.053-.828-.196-1.29-.36l.071-.334zm-.071 1.216l.023-.224.439-.033c.036.195.074.304.02.516l-.482-.26zm-.51.404l.171-.094c.21-.139.367.046.593.119l-.09.088-.673-.113zm.495-.403a15.96 15.96 0 01-.166-.075l-.074-.183.255.016-.015.242zm-.749 0l.255.219c0 .135-.012.12-.043.297l-.212-.516zm-.66-.967c.239-.073.557-.057.915-.065l-.333.258-.685-.067.103-.126zM8.436 3.648c.473-.452 1.659-.317 1.956-.03l.08-.007c-.395.369-1.007.411-1.383.776-.295-.196-.539-.322-.653-.739zm2.6.739l.2.227c-.178.01-.365.021-.552.037-.421.036-.837.099-1.128.25l-.038.002a51.163 51.163 0 01-.063-.099 3.644 3.644 0 011.544-.414l.037-.003zm.992-1.29c.329.33.82.526.99 1.032-.69-.321-1.752-.316-2.29-.827.474.101.878.063 1.3-.205zm.227 1.806l.944.13.074-.006-.757.65c-.12-.239-.148-.563-.261-.774zm1.213 1.104l-.195-.03.254-.042-.06.072zm-.195-.617l.233-.229.021.258-.169-.037-.085.008zm.462 8.54l-.112.005-.096-.09.074-.097.18-.07-.046.253zm-.203.472c.03-.036.062-.072.094-.108l.008-.1.148.235-.255.023.005-.05zm-.101.824l-.158-.19.509-.068-.243.25-.108.008zm.096.774l-.509-.061.36-.197.15.258zm-.357-.728l.103.098-.369.094-.395.02.55-.258.111.046zM11.746 4.129c.297.008.611.083.763.258-.205-.02-.574.013-.667-.145l-.096-.113zm.258 1.032c.145.127.196.277.17.516-.224-.077-.166-.322-.17-.516zm.25 1.627l.009-.044c.507-.11.616.066.385.224-.2-.028-.29-.103-.393-.18zm.653 6.631l.111.028a1.49 1.49 0 00-.004.036l-.25.194.104-.255.039-.003zm-.14-6.294l.19-.157.061.258-.254-.056.002-.045zm.76 6.9l-.615.161-.148.007c0-.008.002-.017.004-.025.23-.046.378-.122.514-.233l.216.04.03.05zm-.439-.606l-.07-.143.175-.115.08.043-.1.208-.085.007zm-1.597 1.785l.303-.236.938.08.032.07-.634.366c-.235-.039-.438-.143-.56-.286l-.08.006zm-.471.022l.47.258-.763-.135c.098-.04.195-.082.293-.123zm-.038.527a7.12 7.12 0 00-.003.062l-.145.08-.107.014.004-.062c.111-.147.092-.098.25-.094zM9.782 5.25a6.022 6.022 0 00-.073-.077c.253-.138.652-.204 1.044-.235.323-.027.641-.03.869-.035l.124.774c-.333-.036-.65-.08-.993-.095a5.2 5.2 0 00-.888.032 41.055 41.055 0 00-.083-.364zm.374 10.355l.062.11-.06.231-.703.054c.075-.23.187-.341.308-.516l.393.121zm-.868-.895c-.32-.018-.758-.252-.852-.516l1.019.259-.167.257zm.358-.014l-.191.014.006-.062.212-.196c-.01.081-.018.162-.027.244zm-.7-9.437l.31-.098.199.25-.21.008-.3-.16zm-.004 11.08c-.017.056-.032.113-.048.17-.025.001-.05.004-.074.007a92.65 92.65 0 00-.129-.258l.255.026-.004.055zm.141-1.113l.594.12.032.08-.461.574-.557-.082.392-.692zm4.444-8.088l.115-.169.042-.001.32.08.032.046-.357.132a41.52 41.52 0 00-.152-.088zm.689-.834l-.18-.11c.183.067.078-.009.18.11zm-.058 1.18l-.122-.104.255-.154-.133.258zm-.122 1.806l.396.098c.107.042.104.053.113.16-.17-.065-.454-.11-.509-.258zm.04-.703l.054-.07.161.257-.255-.05.04-.137zm-5.157 8.491l.027.068-.343.131-.167.013.004-.035.117-.183c.162-.075.166-.026.362.006zm-.737-12.95c.222.166.28.37.245 1.033-.146-.187-.235-.584-.245-1.032zm.146-.515L8.31 3.8l-.127.009.146-.196zm-.146.258c-.007.062-.012.124-.02.186l-.235-.043.194-.139.06-.004zm0 14.968l.126-1.314.892-.235-.938 1.501-.08.048zm.063-3.532l.137-.081c.125.148.013.361-.105.516-.098-.092-.109-.15-.083-.359l.05-.076zm-.827-.126l.293-.471.47.276c-.16.252-.323.504-.485.756-.146-.13-.236-.321-.278-.56zm0 2.021l.47-.428.221.02.073.12c-.02.126-.038.251-.056.376l-.708-.088zm-.763-.35l.56-.336.426.067.032.059-.449.39c-.224-.023-.373-.083-.49-.185l-.08.005zm-.075-.499l.205-.095.088.019.036.042-.593.197-.17-.06.434-.103zm-.689-.242l.15-.363c.278-.036.344.101.553.188l.06.092-.311.213-.253.017-.199-.147zm-.51 1.059l.371-.654c.246 0 .276.02.377.15.045.076.006.035-.092.052l-.023.225.386.06c-.076.189-.088.164-.202.284-.38.02-.551-.052-.816-.117zm-.428-.912l.647.195.036.077-.415.502-.603-.198.335-.576zM2.46 15.56l.008-.077.361.278.031.074c-.751.58.398 2.47 1.705 1.245l.562.226c-.216.385-.587.537-.978.755-.935.078-2.244-1.449-1.69-2.501zm.872.264l.014.175c-.07-.053-.14-.104-.208-.157l-.047-.101.24.083zm1.286 1.096l-.465.36c-.916.096-1.287-.538-1.317-1.317l.179-.216.078-.006c.461.363.869.917 1.495 1.1l.03.079zm-.887-3.76c-.083-.06-.088-.09-.13-.192l.174-.662.203-.178.131.192-.378.84zm-.13.223l.401-.949.082-.048c.185.326.453.474.534.917l-.604.631a1.223 1.223 0 01-.414-.55zm.763.79l.51-.497.253.517c-.254-.008-.508-.014-.763-.02zm1.272-5.215c-.241.515-.562.865-.754 1.364-.084-.453.422-1.104.585-1.504l.078-.045.091.185zm0-1.42c.379-.117.633-.331.904-.571l.115.344-.322.43-.697-.202zm1.273.027l-.138.176-.116-.02.002-.028.232-.21.02.082zm-.2-1.112l.04-.002.16.337-.06.179c-.233-.122-.224-.267-.14-.514zm-.048 7.481l.235.169-.241-.106a1.03 1.03 0 01.006-.063zm-.004.259l.252.109a.9.9 0 00-.004.03l-.54.377c-.155-.07-.174-.209-.22-.36l.005-.032.507-.124zm-.753-.517l.242.098-.13.075-.125.014.013-.187zm-.013-5.16c.306.086.209.028.222.257-.14-.082-.15-.121-.222-.258zm0 4.609l.021-.223c.119.083.16.132.234.258a61.01 61.01 0 00-.255-.035zm.51-3.223c-.096.123-.092.09-.255.161l.111-.258.143.097zm0-1.038l-.16.167c-.16-.09-.085-.054-.013-.221l.095-.037.077.091zm-.021-.439l-.234-.168c.18.069.138.027.234.168zm-.489 4.735l.255.203c-.13-.003-.2-.031-.255-.203zm.764-.01l-.104.01-.089-.164-.062-.08.138-.014c.039.083.077.166.117.248zm-.14-4.778L6.4 8.258c.112.078.038.002.114.115zm.015 4.25l-.13-.27.055-.222.032-.002.168.516a37.21 37.21 0 00-.125-.022zm-.667 3.003l.028.034L5.8 16a.697.697 0 01-.418-.516l.481.142zM5.127 16l.255.226c-.163-.072-.173-.069-.255-.226zm.44-2.288l.03.223-.215-.258.185.035zm-.252 1.207l-.188-.467c.223.085.397.34.51.516l-.322-.049zm.2-4.594l.063-.002-.186.258c-.03-.064.007-.125.11-.2l.013-.057zm-.133 2.218l-.051.102-.146-.113a116.8 116.8 0 01-.058-.123l.2-.022.055.156zM3.6 14.71c.51.332 1.377.64 1.527 1.29A4.234 4.234 0 013.6 14.71zm1.323-.25l.204.25-.509-.258.305.008zm1.864.766l-.387-.39.677-.642.087.707-.377.325zm.377.431l.067-.168.09-.005.097.258-.254-.085zm.343-.947l-.089-.258.185.034-.096.224zm-.343-8.69l.002-.023c.084-.02.168-.04.252-.062l-.176.258-.078-.173zm-2.567 5.335l-.233-.516c.299.065.25.278.233.516zm-.623.258c-.218-.151-.357-.452-.374-.774.447.105.422.281.51.689l-.136.085zm-.263-1.347c-.325-.307.148-1.535.356-1.818.11-.139.248-.136.43-.19l.121.031c-.306.542-.512 1.28-.585 2.034l-.322-.057zm-.475 4.186l.155.261-.139.325-.08.085c.114.016.14-.082.31-.221.33.535.834 1.047 1.39 1.338l-.303.534-.92-.592c-.105-.195.04-.419-.129-.538-.153-.108-.35.048-.506.001l-.432-.396c.127-.284.249-.562.5-.707l.154-.09zm-.88-2.846a6.65 6.65 0 01.149-.764l.034-.003.133.767.07.4c.2.558.402 1.115.604 1.671-.484-.264-.783-.875-.74-1.697-.116.265-.02.682.018.916-.297-.252-.335-.753-.269-1.29zm-.442.265a.941.941 0 01-.086-.31 2.031 2.031 0 01.004-.435l.044-.092.197-.195-.111.721-.048.31zm17.722 2.58l-.509-.196.494-.061.015.258zm-13.47 4.2l.133-.07-.154.257.02-.186zM2.327 9.807l-.217-.02c-.27-.089-.523-.404-.546-.754.413.037.553.233.757.472.002.1.005.201.006.302zm-.03-.021c.03-.557-.395-.905-.947-.89.094-.782.774-1.182 1.38-1.445l.117-.009c-.101.982-.024 1.828-.391 2.678-.271.626-1.232.614-1.18 1.58l.007.08c.137 1.284 1.533 1.545 1.726 2.674-2.07 1.053.453 5.478 2.09 2.879.294.042.555.175.92.047.17-.094.203-.17.269-.366l.585.303.03.074c-.536.416-.914.987-1.49 1.377l.055-.158-.15-.027-.083.045-.075.35c.329.336 1.326-.879 1.618-1.117-.165.577-.573.874-.8 1.402l.07.072c.43-.308.957-1.18 1.037-1.843l.644.107c-.807 1.091-2.88 3.491-3.97 4.132.166-.521.43-.919.564-1.347l-.078.006a14.401 14.401 0 00-.07-.072c-.265.522-.702.889-.78 1.593a.688.688 0 00.174.179c1.296-.216 3.46-3.473 4.494-4.363-.28 2.81-1.786 3.248-3.092 4.95 1.187-.592 1.907-2.102 2.922-2.94C7.781 20.91 7.502 23.533 6.8 24l.116-.009c.788-.49.834-2.505 1.097-3.535l.112-1.083 1.125-1.58.082-.045c.126.395.696.824 1.313.709l.443-.186 1.112.416c.146 1.6.09 2.497-.923 3.715 1.035-.529 1.415-2.567 1.07-3.649 2.407.279 2.31-.533 1.854-2.286l.423.007c-.078-.117-.289-.03-.45-.12-.073-.047-.059-.038-.104-.108.572-.645 1.95-.004 1.66 1.067.396-.888-.479-1.678-1.322-1.36.36-.427.796-.778 1.024-1.343l.082-.044 1.98 2.08.117-.009.09-.122c-.63-.746-1.259-1.493-1.887-2.24l.202-.092a.41.41 0 01.349-.121 22.552 22.552 0 01-.1-.05c1.011.101 2.303.944 3.358.672.097-.169.102-.26.043-.425 1.124.028 3.146-.348 3.79-.894-1.73.363-3.678.486-5.266.274l-1.407-.165-.079.006.379-.68c1.16-.022 4.202-.051 4.817-.779l-.136-.182-.53-.076c-.046.068-.053.132-.06.197l.42.045c-.912.23-3.452.715-4.281.432-.087-.106-.023-.474-.019-.739a.968.968 0 00-.006-.142c1.192-.356 2.077-1.158 2.44-2.368.207-.693.07-1.603.518-2.035.286.025.344.146.554.228-.111-.154-.27-.24-.469-.31l-.373.257c-.341.132-.698-.213-1.277.056-.47-.402-.735-1.037-1.37-1.28l-.065-.11.77-.749c-.252.211-.509.46-.766.71l-.516-.231-.03-.075c.588-.416 1.11-.57 1.779-.438.031.062.064.123.096.185-.031.053-.059.068-.086.083l-.225-.06c.097.057.198.075.299.093l.085-.083.013-.116c-.146-.13-.191-.224-.478-.234l.137-.202c-.328.226-.994.286-1.32.482l.754-.594.09-.121-1.395.832c-.298-.02-.615-.16-.776-.327a39.46 39.46 0 00-.077.006l1.656-1.12-.027-.113c-.628.366-1.257.732-1.884 1.099l-.602-.148.056-.541 4.317-3.39.077-.006-.061-.149c-.16-.076-.817.457-1.065.616-.956.613-1.801 1.376-2.741 1.93.388-.493 1.098-.984 1.216-1.702l-.19-.024-.296.252.322-.14c-.208.633-1.15 1.763-1.682 2.121l-.062-.149c.346-.582.687-1.365.527-2.112l-.29-.17-.311.023c.199.079.334.098.48.195.093.724-.263 1.214-.455 1.8l-.082.044c-.128-.237-.12-.351-.383-.394l-.023-.152.18-.244.124-.086c.042.08.044.051.057.188a.388.388 0 00.059-.196l-.147-.066-.389.412c-.325-.217-.683-.445-1.14-.53.259-.537 1.046-1.4.64-2.081-.496-.828-2.189.126-2.809.783a1.231 1.231 0 00-.186.244c.04-.032.104-.082.186-.144.612-.456 2.241-1.548 2.594-.675.37.487-.339 1.424-.532 1.805-.66-.067-1.35-.13-2.06-.116a7.422 7.422 0 00-2.201.354c-.36.119-1.896 1.039-1.955 1.027l-.7-.678-1.464-.735-.008.077-.086.083 1.876 1.588-.286.175c-.772-.585-1.304-.94-2.453-1.239l-.194.015c.671.462 1.347.885 2.022 1.309l.135.182c-.482.203-.686.625-1.093.887-.636-.304-1.225-.58-1.996-.813l-.054.158 1.444.93.078-.006-.249.172c-.115.387-.34.836-.528 1.382-.72.586-1.653.551-1.798 1.745-.23.063-.392.083-.602.237l-.016.155c.132.184 1.301.679 1.58.727l.172-.166zm8.54-8.256l.107.02-.143-.018c-.025 0-.05.002-.074.003.113-.21.445-.262.764-.239l-.022.152-.624.031-.008.05zm.446.277l.3-.098c.13-.216.204-.445.138-.654-.309-.061-.487.014-.776.136a49.67 49.67 0 00-.157.257l-.06.1a.57.57 0 00.06.06c.098.08.216.108.433.09.06.102-.01.057-.117.085l.18.024zm7.403 2.323l-.322.06.198-.014.227.098-.344.63c.177-.209.353-.357.428-.674l-.187-.1zm-1.85 10.065c-.08-.143-.167-.237-.254-.259.077.073.166.159.254.259zm-1.018 3.096l-.254.148.195-.018.06-.13zm1.018-3.096c.259.292.453.852.397 1.29.294-.635-.041-1.031-.397-1.29Z"/>
	</symbol>

</svg>